<svg width="891" height="227" viewBox="0 0 891 227" fill="none" xmlns="http://www.w3.org/2000/svg">
<g clip-path="url(#clip0_1047_29)">
<path d="M441.18 96.48C438.65 96.48 436.5 97.31 434.8 98.96C433.08 100.63 432.2 102.81 432.2 105.46V143.02C432.2 145.75 431.43 148.25 429.92 150.44C428.36 152.7 426.24 154.52 423.6 155.86C420.95 157.21 417.86 157.89 414.4 157.89C410.75 157.89 407.45 157.18 404.57 155.78C401.79 154.43 399.55 152.3 397.92 149.46C396.26 146.57 395.41 142.79 395.41 138.23V105.47C395.41 102.93 394.55 100.77 392.84 99.06C391.13 97.35 388.98 96.49 386.44 96.49C383.9 96.49 381.74 97.36 380.03 99.06C378.33 100.77 377.46 102.92 377.46 105.46V138.22C377.46 145.93 378.96 152.56 381.93 157.92C384.92 163.33 389.07 167.5 394.25 170.3C399.39 173.08 405.27 174.49 411.74 174.49C418.21 174.49 423.75 173.1 428.71 170.36C430.08 169.6 431.4 168.75 432.64 167.81C433.06 169.11 433.77 170.27 434.76 171.26C436.47 172.97 438.62 173.83 441.17 173.83C443.72 173.83 446 172.96 447.67 171.23C449.31 169.53 450.15 167.38 450.15 164.85V105.45C450.15 102.82 449.31 100.64 447.65 98.98C445.99 97.32 443.81 96.48 441.18 96.48Z" fill="black"/>
<path d="M520.529 101.28C515.049 97.83 508.789 96.08 501.919 96.08C496.369 96.08 491.179 97.25 486.499 99.57C483.549 101.03 480.829 102.86 478.399 105V74.42C478.399 71.79 477.559 69.61 475.899 67.95C474.239 66.29 472.059 65.45 469.429 65.45C466.799 65.45 464.749 66.28 463.049 67.93C461.329 69.6 460.449 71.78 460.449 74.43V135.19C460.539 142.55 462.299 149.26 465.669 155.16C469.039 161.06 473.699 165.79 479.509 169.21C485.329 172.64 491.969 174.37 499.259 174.37C506.549 174.37 513.329 172.63 519.149 169.21C524.949 165.79 529.629 161.07 533.049 155.17C536.469 149.27 538.199 142.54 538.199 135.16C538.199 127.78 536.609 121.13 533.479 115.28C530.339 109.42 525.979 104.71 520.529 101.28ZM520.779 135.16C520.779 139.47 519.819 143.42 517.919 146.9C516.029 150.36 513.439 153.11 510.239 155.07C507.049 157.02 503.359 158.01 499.259 158.01C495.159 158.01 491.569 157.02 488.339 155.06C485.099 153.1 482.519 150.36 480.679 146.91C478.819 143.43 477.869 139.48 477.869 135.15C477.869 130.82 478.809 126.8 480.669 123.41C482.509 120.04 485.089 117.34 488.339 115.37C491.569 113.41 495.249 112.42 499.259 112.42C503.269 112.42 507.049 113.41 510.239 115.36C513.449 117.33 516.039 120.04 517.929 123.42C519.819 126.8 520.779 130.75 520.779 135.14V135.16Z" fill="black"/>
<path d="M602.14 101C596.84 97.7401 590.45 96.0801 583.15 96.0801C575.85 96.0801 569.14 97.7701 563.41 101.1C557.68 104.44 553.12 109.11 549.88 114.98C546.65 120.83 545.01 127.66 545.01 135.28C545.01 142.9 546.75 149.63 550.17 155.49C553.6 161.36 558.41 166.03 564.46 169.35C570.49 172.67 577.45 174.35 585.16 174.35C589.47 174.35 594.03 173.55 598.71 171.97C603.41 170.39 607.41 168.3 610.6 165.77C612.71 164.16 613.71 162.14 613.58 159.79C613.46 157.6 612.4 155.6 610.41 153.85C608.86 152.54 606.98 151.89 604.87 151.94C602.87 152 601 152.66 599.3 153.91C597.71 155.1 595.55 156.19 592.89 157.13C590.25 158.06 587.65 158.54 585.16 158.54C580.5 158.54 576.34 157.52 572.79 155.49C569.24 153.48 566.42 150.7 564.41 147.24C563.49 145.67 562.78 143.95 562.27 142.13H610.2C612.55 142.13 614.54 141.36 616.11 139.85C617.7 138.32 618.51 136.38 618.51 134.08C618.51 126.77 617.11 120.2 614.36 114.54C611.57 108.82 607.46 104.26 602.16 100.99L602.14 101ZM601.43 127.11H562.44C562.84 125.7 563.34 124.36 563.94 123.12C565.61 119.66 568.09 116.89 571.31 114.91C574.54 112.92 578.52 111.91 583.15 111.91C587.13 111.91 590.54 112.82 593.27 114.61C596.03 116.42 598.19 118.93 599.7 122.06C600.45 123.62 601.03 125.31 601.44 127.12L601.43 127.11Z" fill="black"/>
<path d="M767.97 98.7801C764.96 96.7901 760.66 95.8201 754.85 95.8201C749.04 95.8201 743.88 97.1701 739.13 99.8301C737.46 100.76 735.89 101.84 734.43 103.03C734.1 101.36 733.4 99.9801 732.35 98.9201C730.82 97.3901 728.62 96.6201 725.81 96.6201C723 96.6201 720.91 97.4201 719.34 98.9901C717.77 100.56 716.97 102.74 716.97 105.46V164.99C716.97 167.82 717.78 170.03 719.37 171.56C720.94 173.07 723.11 173.84 725.81 173.84C728.51 173.84 730.84 173.03 732.38 171.44C733.89 169.87 734.66 167.7 734.66 165V126.11C734.66 122.59 735.74 119.78 737.96 117.52C740.26 115.18 743.5 113.55 747.59 112.66C751.8 111.75 756.63 111.84 761.95 112.92C763.39 113.25 764.76 113.31 766.03 113.07C767.4 112.82 768.63 112.22 769.68 111.29C770.79 110.31 771.53 108.97 771.88 107.34C772.48 105.01 772.29 101.64 767.97 98.7801Z" fill="black"/>
<path d="M824.829 131.9C820.799 129.77 815.289 127.99 808.459 126.63C803.819 125.69 800.279 124.72 797.929 123.75C795.869 122.91 794.529 122.02 793.929 121.11C793.319 120.18 793.019 119.16 793.019 117.98C793.019 116.27 793.919 115.03 795.859 114.08C798.249 112.9 801.269 112.31 804.819 112.31C807.959 112.31 810.739 112.68 813.089 113.41C815.329 114.1 817.459 115.42 819.439 117.32C821.079 118.85 823.109 119.84 825.469 120.27C827.999 120.73 830.269 120.29 832.229 118.94C834.179 117.47 835.239 115.61 835.359 113.39C835.479 111.25 834.729 109.24 833.149 107.43C830.269 103.87 826.349 101.06 821.499 99.06C816.729 97.1 811.199 96.1 805.079 96.1C800.329 96.1 795.689 96.88 791.299 98.42C786.799 100 783.039 102.44 780.139 105.68C777.119 109.05 775.589 113.33 775.589 118.39C775.589 124.18 777.879 129.12 782.389 133.08C786.699 136.87 793.619 139.73 802.959 141.58C809.509 142.76 814.019 144.24 816.359 145.98C818.389 147.49 819.339 149.16 819.279 151.08C819.219 152.99 818.179 154.54 816.109 155.82C813.769 157.28 810.189 158.02 805.479 158.02C801.719 158.02 798.279 157.34 795.239 156.01C792.209 154.68 790.009 153.26 788.699 151.79C787.109 150.08 785.159 149.07 782.919 148.78C780.589 148.48 778.279 149.24 776.059 151.01C774.069 152.53 772.919 154.53 772.619 156.94C772.319 159.43 773.079 161.67 774.909 163.61C778.059 166.76 782.469 169.37 788.029 171.38C793.519 173.37 799.569 174.37 806.019 174.37C812.469 174.37 818.239 173.32 822.719 171.24C827.289 169.12 830.819 166.22 833.209 162.61C835.619 158.98 836.839 154.85 836.839 150.35C836.839 146.4 835.879 142.86 833.979 139.8C832.089 136.77 829.009 134.12 824.819 131.9H824.829Z" fill="black"/>
<path d="M888.57 158.74C887.76 157.84 886.85 157.17 885.85 156.74L884.57 155.81L885.18 156.5C884.46 156.27 883.69 156.16 882.88 156.16H878.35C876.18 156.16 874.38 155.25 872.85 153.37C871.21 151.36 870.41 148.89 870.41 145.83V115.12H879.55C881.97 115.12 883.99 114.39 885.56 112.94C887.17 111.45 887.99 109.56 887.99 107.34C887.99 104.94 887.17 102.97 885.56 101.47C883.99 100.03 881.97 99.29 879.55 99.29H870.41V82.3C870.41 79.76 869.57 77.63 867.91 75.96C866.25 74.3 864.11 73.46 861.57 73.46C859.03 73.46 856.89 74.3 855.23 75.96C853.57 77.62 852.73 79.75 852.73 82.3V99.29H848.79C846.37 99.29 844.34 100.02 842.78 101.47C841.17 102.96 840.35 104.93 840.35 107.34C840.35 109.57 841.17 111.45 842.78 112.94C844.34 114.39 846.37 115.12 848.79 115.12H852.73V145.83C852.73 151.05 853.84 155.83 856.04 160.03C858.25 164.26 861.33 167.65 865.19 170.12C869.08 172.6 873.51 173.86 878.35 173.86H880.75C883.58 173.86 885.96 173.06 887.82 171.48C889.79 169.81 890.79 167.64 890.79 165.02C890.79 162.4 890.04 160.42 888.57 158.77V158.74Z" fill="black"/>
<path d="M694.239 63.13C690.839 63.13 688.109 64.04 686.129 65.83C684.099 67.67 683.069 70.32 683.069 73.7C683.069 77.08 684.089 79.58 686.099 81.47C688.079 83.32 690.809 84.26 694.229 84.26C697.649 84.26 700.529 83.31 702.459 81.44C704.409 79.55 705.389 76.95 705.389 73.69C705.389 70.43 704.389 67.68 702.429 65.84C700.499 64.04 697.739 63.13 694.229 63.13H694.239Z" fill="black"/>
<path d="M693.939 96.82H653.249V95.3C653.249 90.18 654.379 86.29 656.619 83.75C658.819 81.24 662.519 79.79 667.609 79.42L671.719 79.12C673.309 78.98 674.719 78.26 675.799 77.03C676.759 75.95 677.429 74.63 677.819 73.11C678.209 71.54 678.149 69.97 677.619 68.44C677.059 66.84 676.009 65.58 674.499 64.68C673.019 63.81 671.169 63.49 669.009 63.73L664.399 64.04C654.599 64.99 647.019 68.24 641.879 73.71C636.819 79.09 634.199 86.86 634.099 96.81H627.589C625.189 96.81 623.219 97.49 621.749 98.83C620.219 100.22 619.449 102.18 619.449 104.65C619.449 107.12 620.209 108.94 621.709 110.37C623.189 111.78 625.169 112.5 627.589 112.5H634.099V165.84C634.099 168.78 634.979 171.15 636.709 172.89C638.439 174.62 640.809 175.5 643.749 175.5C649.789 175.5 653.249 171.98 653.249 165.84V112.5H684.429V165.08C684.429 168.18 685.259 170.68 686.889 172.5C688.579 174.38 690.949 175.34 693.929 175.34C697.129 175.34 699.579 174.38 701.219 172.47C702.789 170.65 703.579 168.16 703.579 165.08V106.92C703.579 103.92 702.749 101.47 701.119 99.65C699.429 97.77 697.009 96.81 693.929 96.81L693.939 96.82Z" fill="black"/>
<path d="M340.99 127.99L365.54 105.96C367.42 104.35 368.41 102.36 368.48 100.06C368.55 97.82 367.74 95.78 366.1 94.01C364.49 92.13 362.5 91.14 360.19 91.07C357.99 91.01 355.84 91.88 354.24 93.49L322.73 121.67V68.45C322.73 65.88 321.88 63.72 320.21 62.05C318.54 60.38 316.39 59.53 313.81 59.53C311.23 59.53 309.08 60.38 307.41 62.05C305.74 63.72 304.89 65.87 304.89 68.45V164.68C304.89 167.26 305.74 169.41 307.4 171.08C309.07 172.75 311.22 173.6 313.8 173.6C316.38 173.6 318.53 172.75 320.2 171.08C321.87 169.41 322.72 167.26 322.72 164.68V144.38L328.02 139.63L353.52 171.08C355.1 173.05 357.11 174.16 359.48 174.36C359.73 174.38 359.98 174.39 360.23 174.39C362.27 174.39 364.19 173.68 365.96 172.26C367.88 170.6 368.96 168.62 369.16 166.39C369.36 164.14 368.67 162.05 367.1 160.22L340.97 128.02L340.99 127.99Z" fill="black"/>
<path d="M243.39 67.9C225.33 79.02 206.21 84.03 206.21 84.03C206.21 84.03 208.44 67.75 194.16 56.76C162.5 32.35 125.26 55.04 90.75 86.43C61.73 112.83 35.61 170.89 22.57 199.74C12.97 221.04 0 226.21 0 226.21C0 226.21 13.85 223.7 28.81 208.71C62.16 175.29 89.58 139.72 112.67 145.38C144.09 153.08 166.32 154.17 183.81 150.97C232.46 132.28 236.01 94.56 243.39 67.9Z" fill="url(#paint0_linear_1047_29)"/>
<path d="M184.32 150.87C184.59 150.82 184.84 150.77 185.09 150.72C184.84 150.78 184.58 150.83 184.32 150.87Z" fill="url(#paint1_linear_1047_29)"/>
<path d="M122.9 93.4L118.4 95.87L115.94 100.38L113.47 95.87L108.95 93.41L113.45 90.94L115.91 86.42L118.39 90.94L122.9 93.4Z" fill="url(#paint2_linear_1047_29)"/>
<path d="M156.36 98.4999L152.68 100.51L150.68 104.19L148.66 100.51L144.97 98.5099L148.65 96.4899L150.67 92.8099L152.68 96.4899L156.36 98.4999Z" fill="url(#paint3_linear_1047_29)"/>
<path d="M125.8 120.19L123.47 121.47L122.19 123.82L120.91 121.47L118.56 120.19L120.91 118.91L122.18 116.58L123.47 118.91L125.8 120.19Z" fill="url(#paint4_linear_1047_29)"/>
<path d="M187.27 75.27L184.94 76.55L183.66 78.88L182.38 76.55L180.03 75.27L182.38 73.99L183.64 71.64L184.93 73.99L187.27 75.27Z" fill="url(#paint5_linear_1047_29)"/>
<path d="M98.4296 115.88L94.5096 118.02L92.3796 121.94L90.2196 118.03L86.3096 115.89L90.2196 113.75L92.3496 109.83L94.5096 113.75L98.4296 115.88Z" fill="url(#paint6_linear_1047_29)"/>
<path d="M84.0095 138.05L81.6795 139.33L80.3995 141.68L79.1195 139.33L76.7695 138.07L79.1195 136.79L80.3995 134.44L81.6795 136.77L84.0095 138.05Z" fill="url(#paint7_linear_1047_29)"/>
<path d="M142.56 78.88L140.23 80.16L138.95 82.51L137.67 80.16L135.32 78.89L137.67 77.61L138.94 75.27L140.23 77.6L142.56 78.88Z" fill="url(#paint8_linear_1047_29)"/>
<path d="M90.7604 86.42C99.5804 78.39 108.57 70.95 117.61 64.7C98.4104 52.27 82.3004 23.39 77.7804 7.42997C68.2204 -26.35 16.7004 62.43 61.2504 124.01C70.4004 109.3 80.4004 95.85 90.7504 86.42H90.7604Z" fill="url(#paint9_linear_1047_29)"/>
<path d="M252.67 47.36C280.06 14.76 271.44 135.01 183.77 150.99C247.38 126.58 233.94 69.65 252.67 47.36Z" fill="#3C356C"/>
<path d="M28.9504 158.26L39.9004 162.8C45.2804 152 51.3004 140.61 57.7904 129.72C44.6204 138.43 33.3704 146.95 27.7704 151.85C25.6104 153.74 26.2604 157.26 28.9504 158.27V158.26Z" fill="#3C356C"/>
<path d="M112.67 145.38C98.1905 141.83 82.0105 154.5 63.7305 172.68L104.29 189.48C105.99 190.11 107.9 189.47 108.85 187.92C112.49 182.04 120.84 165.62 127.11 148.59C122.52 147.68 117.71 146.61 112.67 145.38Z" fill="#3C356C"/>
</g>
<defs>
<linearGradient id="paint0_linear_1047_29" x1="-2.13" y1="184.7" x2="214.74" y2="74.99" gradientUnits="userSpaceOnUse">
<stop stop-color="#D0BAE9"/>
<stop offset="0.47" stop-color="#3C356C"/>
<stop offset="0.74" stop-color="#3C356C"/>
<stop offset="0.78" stop-color="#3F3A72"/>
<stop offset="0.83" stop-color="#484B83"/>
<stop offset="0.9" stop-color="#5766A0"/>
<stop offset="0.96" stop-color="#6C8CC7"/>
<stop offset="1" stop-color="#7AA5E2"/>
</linearGradient>
<linearGradient id="paint1_linear_1047_29" x1="184.4" y1="150.95" x2="184.98" y2="150.66" gradientUnits="userSpaceOnUse">
<stop stop-color="#D0BAE9"/>
<stop offset="0.47" stop-color="#3C356C"/>
<stop offset="0.74" stop-color="#3C356C"/>
<stop offset="0.78" stop-color="#3F3A72"/>
<stop offset="0.83" stop-color="#484B83"/>
<stop offset="0.9" stop-color="#5766A0"/>
<stop offset="0.96" stop-color="#6C8CC7"/>
<stop offset="1" stop-color="#7AA5E2"/>
</linearGradient>
<linearGradient id="paint2_linear_1047_29" x1="108.95" y1="93.4" x2="122.9" y2="93.4" gradientUnits="userSpaceOnUse">
<stop stop-color="white"/>
<stop offset="1" stop-color="#D0BAE9"/>
</linearGradient>
<linearGradient id="paint3_linear_1047_29" x1="144.97" y1="98.4999" x2="156.36" y2="98.4999" gradientUnits="userSpaceOnUse">
<stop stop-color="white"/>
<stop offset="1" stop-color="#D0BAE9"/>
</linearGradient>
<linearGradient id="paint4_linear_1047_29" x1="118.56" y1="120.19" x2="125.8" y2="120.19" gradientUnits="userSpaceOnUse">
<stop stop-color="white"/>
<stop offset="1" stop-color="#D0BAE9"/>
</linearGradient>
<linearGradient id="paint5_linear_1047_29" x1="180.03" y1="75.26" x2="187.27" y2="75.26" gradientUnits="userSpaceOnUse">
<stop stop-color="white"/>
<stop offset="1" stop-color="#D0BAE9"/>
</linearGradient>
<linearGradient id="paint6_linear_1047_29" x1="86.2996" y1="115.88" x2="98.4296" y2="115.88" gradientUnits="userSpaceOnUse">
<stop stop-color="white"/>
<stop offset="1" stop-color="#D0BAE9"/>
</linearGradient>
<linearGradient id="paint7_linear_1047_29" x1="76.7695" y1="138.06" x2="84.0095" y2="138.06" gradientUnits="userSpaceOnUse">
<stop stop-color="white"/>
<stop offset="1" stop-color="#D0BAE9"/>
</linearGradient>
<linearGradient id="paint8_linear_1047_29" x1="135.32" y1="78.89" x2="142.56" y2="78.89" gradientUnits="userSpaceOnUse">
<stop stop-color="white"/>
<stop offset="1" stop-color="#D0BAE9"/>
</linearGradient>
<linearGradient id="paint9_linear_1047_29" x1="64.4704" y1="-2.08003" x2="89.9104" y2="114.66" gradientUnits="userSpaceOnUse">
<stop offset="0.11" stop-color="#7AA5E2"/>
<stop offset="0.24" stop-color="#6885C1"/>
<stop offset="0.45" stop-color="#505A93"/>
<stop offset="0.61" stop-color="#413F76"/>
<stop offset="0.7" stop-color="#3C356C"/>
</linearGradient>
<clipPath id="clip0_1047_29">
<rect width="890.79" height="226.21" fill="white"/>
</clipPath>
</defs>
</svg>
