<svg width="586" height="349" viewBox="0 0 586 349" fill="none" xmlns="http://www.w3.org/2000/svg">
<g clip-path="url(#clip0_1049_2)">
<path d="M394.1 60.23C378.08 70.1 361.12 74.53 361.12 74.53C361.12 74.53 363.1 60.09 350.43 50.33C322.33 28.68 289.3 48.81 258.68 76.66C232.93 100.08 209.76 151.59 198.2 177.18C189.66 196.08 178.16 200.67 178.16 200.67C178.16 200.67 190.45 198.45 203.72 185.15C233.3 155.5 257.64 123.94 278.12 128.96C305.99 135.79 325.72 136.75 341.23 133.92C384.39 117.35 387.54 83.88 394.09 60.22L394.1 60.23Z" fill="url(#paint0_linear_1049_2)"/>
<path d="M341.69 133.85C341.92 133.81 342.15 133.76 342.38 133.72C342.15 133.77 341.92 133.81 341.69 133.85Z" fill="url(#paint1_linear_1049_2)"/>
<path d="M287.2 82.8499L283.2 85.0499L281.02 89.0499L278.83 85.0499L274.82 82.8699L278.82 80.6799L281 76.6699L283.2 80.6699L287.2 82.8499Z" fill="url(#paint2_linear_1049_2)"/>
<path d="M316.88 87.38L313.62 89.17L311.84 92.43L310.05 89.17L306.79 87.39L310.05 85.6L311.83 82.34L313.62 85.6L316.88 87.38Z" fill="url(#paint3_linear_1049_2)"/>
<path d="M289.78 106.62L287.7 107.76L286.57 109.84L285.43 107.76L283.36 106.63L285.43 105.49L286.56 103.41L287.7 105.49L289.78 106.62Z" fill="url(#paint4_linear_1049_2)"/>
<path d="M344.311 66.7699L342.241 67.8999L341.101 69.9799L339.961 67.9099L337.891 66.7699L339.961 65.6399L341.091 63.5599L342.231 65.6299L344.311 66.7699Z" fill="url(#paint5_linear_1049_2)"/>
<path d="M265.49 102.8L262.01 104.71L260.12 108.18L258.22 104.71L254.74 102.82L258.21 100.91L260.11 97.4399L262.01 100.91L265.49 102.8Z" fill="url(#paint6_linear_1049_2)"/>
<path d="M252.7 122.47L250.63 123.61L249.5 125.69L248.36 123.61L246.28 122.48L248.36 121.34L249.49 119.27L250.63 121.34L252.7 122.47Z" fill="url(#paint7_linear_1049_2)"/>
<path d="M304.65 69.98L302.57 71.12L301.44 73.19L300.3 71.12L298.23 69.99L300.3 68.85L301.43 66.77L302.57 68.84L304.65 69.98Z" fill="url(#paint8_linear_1049_2)"/>
<path d="M258.69 76.67C266.51 69.55 274.5 62.94 282.51 57.4C265.48 46.37 251.18 20.75 247.18 6.58997C238.7 -23.38 193 55.39 232.52 110.03C240.64 96.97 249.5 85.03 258.69 76.67Z" fill="url(#paint9_linear_1049_2)"/>
<path d="M402.33 42.01C426.63 13.09 418.98 119.77 341.2 133.94C397.63 112.3 385.71 61.78 402.33 42.01Z" fill="#3C356C"/>
<path d="M203.85 140.4L213.57 144.43C218.34 134.85 223.68 124.75 229.44 115.08C217.75 122.81 207.77 130.37 202.81 134.71C200.89 136.39 201.46 139.51 203.85 140.41V140.4Z" fill="#3C356C"/>
<path d="M278.12 128.97C265.28 125.82 250.92 137.06 234.71 153.19L270.69 168.1C272.2 168.66 273.89 168.09 274.74 166.72C277.96 161.5 285.39 146.94 290.93 131.82C286.86 131.02 282.59 130.07 278.12 128.98V128.97Z" fill="#3C356C"/>
<path d="M136.281 269.65C133.751 269.65 131.601 270.48 129.901 272.13C128.181 273.8 127.301 275.98 127.301 278.63V316.19C127.301 318.92 126.531 321.42 125.021 323.61C123.461 325.87 121.341 327.69 118.701 329.03C116.051 330.38 112.961 331.06 109.501 331.06C105.851 331.06 102.551 330.35 99.6705 328.95C96.8905 327.6 94.6505 325.47 93.0205 322.63C91.3605 319.74 90.5106 315.96 90.5106 311.4V278.64C90.5106 276.1 89.6506 273.94 87.9406 272.23C86.2306 270.52 84.0806 269.66 81.5406 269.66C79.0006 269.66 76.8405 270.53 75.1305 272.23C73.4305 273.94 72.5605 276.09 72.5605 278.63V311.39C72.5605 319.1 74.0605 325.73 77.0305 331.09C80.0205 336.5 84.1705 340.67 89.3505 343.47C94.4905 346.25 100.371 347.66 106.841 347.66C113.311 347.66 118.851 346.27 123.811 343.53C125.181 342.77 126.501 341.92 127.741 340.98C128.161 342.28 128.871 343.44 129.861 344.43C131.571 346.14 133.721 347 136.271 347C138.821 347 141.101 346.13 142.771 344.4C144.411 342.7 145.251 340.55 145.251 338.02V278.62C145.251 275.99 144.411 273.81 142.751 272.15C141.091 270.49 138.911 269.65 136.281 269.65Z" fill="white"/>
<path d="M215.62 274.44C210.14 270.99 203.88 269.24 197.01 269.24C191.46 269.24 186.27 270.41 181.59 272.73C178.64 274.19 175.92 276.02 173.49 278.16V247.58C173.49 244.95 172.65 242.77 170.99 241.11C169.33 239.45 167.15 238.61 164.52 238.61C161.89 238.61 159.84 239.44 158.14 241.09C156.42 242.76 155.54 244.94 155.54 247.59V308.35C155.63 315.71 157.39 322.42 160.76 328.32C164.13 334.22 168.79 338.95 174.6 342.37C180.42 345.8 187.06 347.53 194.35 347.53C201.64 347.53 208.42 345.79 214.24 342.37C220.04 338.95 224.72 334.23 228.14 328.33C231.56 322.43 233.29 315.7 233.29 308.32C233.29 300.94 231.7 294.29 228.57 288.44C225.43 282.58 221.07 277.87 215.62 274.44ZM215.87 308.32C215.87 312.63 214.91 316.58 213.01 320.06C211.12 323.52 208.53 326.27 205.33 328.23C202.14 330.18 198.45 331.17 194.35 331.17C190.25 331.17 186.66 330.18 183.43 328.22C180.19 326.26 177.61 323.52 175.77 320.07C173.91 316.59 172.96 312.64 172.96 308.31C172.96 303.98 173.9 299.96 175.76 296.57C177.6 293.2 180.18 290.5 183.43 288.53C186.66 286.57 190.34 285.58 194.35 285.58C198.36 285.58 202.14 286.57 205.33 288.52C208.54 290.49 211.13 293.2 213.02 296.58C214.91 299.96 215.87 303.91 215.87 308.3V308.32Z" fill="white"/>
<path d="M297.231 274.17C291.931 270.91 285.541 269.25 278.241 269.25C270.941 269.25 264.231 270.94 258.501 274.27C252.771 277.61 248.211 282.28 244.971 288.15C241.741 294 240.101 300.83 240.101 308.45C240.101 316.07 241.841 322.8 245.261 328.66C248.691 334.53 253.501 339.2 259.551 342.52C265.581 345.84 272.541 347.52 280.251 347.52C284.561 347.52 289.121 346.72 293.801 345.14C298.501 343.56 302.501 341.47 305.691 338.94C307.801 337.33 308.801 335.31 308.671 332.96C308.551 330.77 307.491 328.77 305.501 327.02C303.951 325.71 302.071 325.06 299.961 325.11C297.961 325.17 296.091 325.83 294.391 327.08C292.801 328.27 290.641 329.36 287.981 330.3C285.341 331.23 282.741 331.71 280.251 331.71C275.591 331.71 271.431 330.69 267.881 328.66C264.331 326.65 261.511 323.87 259.501 320.41C258.581 318.84 257.871 317.12 257.361 315.3H305.291C307.641 315.3 309.631 314.53 311.201 313.02C312.791 311.49 313.601 309.55 313.601 307.25C313.601 299.94 312.201 293.37 309.451 287.71C306.661 281.99 302.551 277.43 297.251 274.16L297.231 274.17ZM296.521 300.28H257.531C257.931 298.87 258.431 297.53 259.031 296.29C260.701 292.83 263.181 290.06 266.401 288.08C269.631 286.09 273.611 285.08 278.241 285.08C282.221 285.08 285.631 285.99 288.361 287.78C291.121 289.59 293.281 292.1 294.791 295.23C295.541 296.79 296.121 298.48 296.531 300.29L296.521 300.28Z" fill="white"/>
<path d="M463.061 271.94C460.051 269.95 455.751 268.98 449.941 268.98C444.131 268.98 438.971 270.33 434.221 272.99C432.551 273.92 430.981 275 429.521 276.19C429.191 274.52 428.491 273.14 427.441 272.08C425.911 270.55 423.711 269.78 420.901 269.78C418.091 269.78 416.001 270.58 414.431 272.15C412.861 273.72 412.061 275.9 412.061 278.62V338.15C412.061 340.98 412.871 343.19 414.461 344.72C416.031 346.23 418.201 347 420.901 347C423.601 347 425.931 346.19 427.471 344.6C428.981 343.03 429.751 340.86 429.751 338.16V299.27C429.751 295.75 430.831 292.94 433.051 290.68C435.351 288.34 438.591 286.71 442.681 285.82C446.891 284.91 451.721 285 457.041 286.08C458.481 286.41 459.851 286.47 461.121 286.23C462.491 285.98 463.721 285.38 464.771 284.45C465.881 283.47 466.621 282.13 466.971 280.5C467.571 278.17 467.381 274.8 463.061 271.94Z" fill="white"/>
<path d="M519.92 305.06C515.89 302.93 510.38 301.15 503.55 299.79C498.91 298.85 495.37 297.88 493.02 296.91C490.96 296.07 489.62 295.18 489.02 294.27C488.41 293.34 488.11 292.32 488.11 291.14C488.11 289.43 489.01 288.19 490.95 287.24C493.34 286.06 496.36 285.47 499.91 285.47C503.05 285.47 505.83 285.84 508.18 286.57C510.42 287.26 512.55 288.58 514.53 290.48C516.17 292.01 518.2 293 520.56 293.43C523.09 293.89 525.36 293.45 527.32 292.1C529.27 290.63 530.33 288.77 530.45 286.55C530.57 284.41 529.82 282.4 528.24 280.59C525.36 277.03 521.44 274.22 516.59 272.22C511.82 270.26 506.29 269.26 500.17 269.26C495.42 269.26 490.78 270.04 486.39 271.58C481.89 273.16 478.13 275.6 475.23 278.84C472.21 282.21 470.68 286.49 470.68 291.55C470.68 297.34 472.97 302.28 477.48 306.24C481.79 310.03 488.71 312.89 498.05 314.74C504.6 315.92 509.11 317.4 511.45 319.14C513.48 320.65 514.43 322.32 514.37 324.24C514.31 326.15 513.27 327.7 511.2 328.98C508.86 330.44 505.28 331.18 500.57 331.18C496.81 331.18 493.37 330.5 490.33 329.17C487.3 327.84 485.1 326.42 483.79 324.95C482.2 323.24 480.25 322.23 478.01 321.94C475.68 321.64 473.37 322.4 471.15 324.17C469.16 325.69 468.01 327.69 467.71 330.1C467.41 332.59 468.17 334.83 470 336.77C473.15 339.92 477.56 342.53 483.12 344.54C488.61 346.53 494.66 347.53 501.11 347.53C507.56 347.53 513.33 346.48 517.81 344.4C522.38 342.28 525.91 339.38 528.3 335.77C530.71 332.14 531.93 328.01 531.93 323.51C531.93 319.56 530.97 316.02 529.07 312.96C527.18 309.93 524.1 307.28 519.91 305.06H519.92Z" fill="white"/>
<path d="M583.66 331.91C582.85 331.01 581.94 330.34 580.94 329.91L579.66 328.98L580.27 329.67C579.55 329.44 578.78 329.33 577.97 329.33H573.44C571.27 329.33 569.47 328.42 567.94 326.54C566.3 324.53 565.5 322.06 565.5 319V288.29H574.64C577.06 288.29 579.08 287.56 580.65 286.11C582.26 284.62 583.08 282.73 583.08 280.51C583.08 278.11 582.26 276.14 580.65 274.64C579.08 273.2 577.06 272.46 574.64 272.46H565.5V255.47C565.5 252.93 564.66 250.8 563 249.13C561.34 247.47 559.2 246.63 556.66 246.63C554.12 246.63 551.98 247.47 550.32 249.13C548.66 250.79 547.82 252.92 547.82 255.47V272.46H543.88C541.46 272.46 539.43 273.19 537.87 274.64C536.26 276.13 535.44 278.1 535.44 280.51C535.44 282.74 536.26 284.62 537.87 286.11C539.43 287.56 541.46 288.29 543.88 288.29H547.82V319C547.82 324.22 548.93 329 551.13 333.2C553.34 337.43 556.42 340.82 560.28 343.29C564.17 345.77 568.6 347.03 573.44 347.03H575.84C578.67 347.03 581.05 346.23 582.91 344.65C584.88 342.98 585.88 340.81 585.88 338.19C585.88 335.57 585.13 333.59 583.66 331.94V331.91Z" fill="white"/>
<path d="M389.341 236.3C385.941 236.3 383.211 237.21 381.231 239C379.201 240.84 378.171 243.49 378.171 246.87C378.171 250.25 379.191 252.75 381.201 254.64C383.181 256.49 385.911 257.43 389.331 257.43C392.751 257.43 395.631 256.48 397.561 254.61C399.511 252.72 400.491 250.12 400.491 246.86C400.491 243.6 399.491 240.85 397.531 239.01C395.601 237.21 392.841 236.3 389.331 236.3H389.341Z" fill="white"/>
<path d="M389.03 269.98H348.34V268.46C348.34 263.34 349.47 259.45 351.71 256.91C353.91 254.4 357.61 252.95 362.7 252.58L366.81 252.28C368.4 252.14 369.81 251.42 370.89 250.19C371.85 249.11 372.52 247.79 372.91 246.27C373.3 244.7 373.24 243.13 372.71 241.6C372.15 240 371.1 238.74 369.59 237.84C368.11 236.97 366.26 236.65 364.1 236.89L359.49 237.2C349.69 238.15 342.11 241.4 336.97 246.87C331.91 252.25 329.29 260.02 329.19 269.97H322.68C320.28 269.97 318.31 270.65 316.84 271.99C315.31 273.38 314.54 275.34 314.54 277.81C314.54 280.28 315.3 282.1 316.8 283.53C318.28 284.94 320.26 285.66 322.68 285.66H329.19V339C329.19 341.94 330.07 344.31 331.8 346.05C333.53 347.78 335.9 348.66 338.84 348.66C344.88 348.66 348.34 345.14 348.34 339V285.66H379.52V338.24C379.52 341.34 380.35 343.84 381.98 345.66C383.67 347.54 386.04 348.5 389.02 348.5C392.22 348.5 394.67 347.54 396.31 345.63C397.88 343.81 398.67 341.32 398.67 338.24V280.08C398.67 277.08 397.84 274.63 396.21 272.81C394.52 270.93 392.1 269.97 389.02 269.97L389.03 269.98Z" fill="white"/>
<path d="M36.0805 301.15L60.6305 279.12C62.5105 277.51 63.5005 275.52 63.5705 273.22C63.6405 270.98 62.8305 268.94 61.1905 267.17C59.5805 265.29 57.5905 264.3 55.2805 264.23C53.0805 264.17 50.9305 265.04 49.3305 266.65L17.8205 294.83V241.61C17.8205 239.04 16.9705 236.88 15.3005 235.21C13.6305 233.54 11.4805 232.69 8.90047 232.69C6.32047 232.69 4.17047 233.54 2.50047 235.21C0.830469 236.88 -0.0195312 239.03 -0.0195312 241.61V337.84C-0.0195312 340.42 0.830469 342.57 2.49047 344.24C4.16047 345.91 6.31047 346.76 8.89047 346.76C11.4705 346.76 13.6205 345.91 15.2905 344.24C16.9605 342.57 17.8105 340.42 17.8105 337.84V317.54L23.1105 312.79L48.6105 344.24C50.1905 346.21 52.2005 347.32 54.5705 347.52C54.8205 347.54 55.0705 347.55 55.3205 347.55C57.3605 347.55 59.2805 346.84 61.0505 345.42C62.9705 343.76 64.0505 341.78 64.2505 339.55C64.4505 337.3 63.7605 335.21 62.1905 333.38L36.0605 301.18L36.0805 301.15Z" fill="white"/>
</g>
<defs>
<linearGradient id="paint0_linear_1049_2" x1="176.28" y1="163.86" x2="368.68" y2="66.53" gradientUnits="userSpaceOnUse">
<stop stop-color="#D0BAE9"/>
<stop offset="0.47" stop-color="#3C356C"/>
<stop offset="0.74" stop-color="#3C356C"/>
<stop offset="0.78" stop-color="#3F3A72"/>
<stop offset="0.83" stop-color="#484B83"/>
<stop offset="0.9" stop-color="#5766A0"/>
<stop offset="0.96" stop-color="#6C8CC7"/>
<stop offset="1" stop-color="#7AA5E2"/>
</linearGradient>
<linearGradient id="paint1_linear_1049_2" x1="341.77" y1="133.92" x2="342.28" y2="133.66" gradientUnits="userSpaceOnUse">
<stop stop-color="#D0BAE9"/>
<stop offset="0.47" stop-color="#3C356C"/>
<stop offset="0.74" stop-color="#3C356C"/>
<stop offset="0.78" stop-color="#3F3A72"/>
<stop offset="0.83" stop-color="#484B83"/>
<stop offset="0.9" stop-color="#5766A0"/>
<stop offset="0.96" stop-color="#6C8CC7"/>
<stop offset="1" stop-color="#7AA5E2"/>
</linearGradient>
<linearGradient id="paint2_linear_1049_2" x1="274.82" y1="82.8599" x2="287.2" y2="82.8599" gradientUnits="userSpaceOnUse">
<stop stop-color="white"/>
<stop offset="1" stop-color="#D0BAE9"/>
</linearGradient>
<linearGradient id="paint3_linear_1049_2" x1="306.79" y1="87.38" x2="316.88" y2="87.38" gradientUnits="userSpaceOnUse">
<stop stop-color="white"/>
<stop offset="1" stop-color="#D0BAE9"/>
</linearGradient>
<linearGradient id="paint4_linear_1049_2" x1="283.36" y1="106.63" x2="289.78" y2="106.63" gradientUnits="userSpaceOnUse">
<stop stop-color="white"/>
<stop offset="1" stop-color="#D0BAE9"/>
</linearGradient>
<linearGradient id="paint5_linear_1049_2" x1="337.891" y1="66.7699" x2="344.311" y2="66.7699" gradientUnits="userSpaceOnUse">
<stop stop-color="white"/>
<stop offset="1" stop-color="#D0BAE9"/>
</linearGradient>
<linearGradient id="paint6_linear_1049_2" x1="254.74" y1="102.81" x2="265.49" y2="102.81" gradientUnits="userSpaceOnUse">
<stop stop-color="white"/>
<stop offset="1" stop-color="#D0BAE9"/>
</linearGradient>
<linearGradient id="paint7_linear_1049_2" x1="246.28" y1="122.48" x2="252.7" y2="122.48" gradientUnits="userSpaceOnUse">
<stop stop-color="white"/>
<stop offset="1" stop-color="#D0BAE9"/>
</linearGradient>
<linearGradient id="paint8_linear_1049_2" x1="298.23" y1="69.98" x2="304.65" y2="69.98" gradientUnits="userSpaceOnUse">
<stop stop-color="white"/>
<stop offset="1" stop-color="#D0BAE9"/>
</linearGradient>
<linearGradient id="paint9_linear_1049_2" x1="235.37" y1="-1.85003" x2="257.94" y2="101.72" gradientUnits="userSpaceOnUse">
<stop offset="0.11" stop-color="#7AA5E2"/>
<stop offset="0.24" stop-color="#6885C1"/>
<stop offset="0.45" stop-color="#505A93"/>
<stop offset="0.61" stop-color="#413F76"/>
<stop offset="0.7" stop-color="#3C356C"/>
</linearGradient>
<clipPath id="clip0_1049_2">
<rect width="585.88" height="348.66" fill="white"/>
</clipPath>
</defs>
</svg>
